<svg xmlns="http://www.w3.org/2000/svg" version="1.1" xmlns:xlink="http://www.w3.org/1999/xlink" xmlns:svgjs="http://svgjs.dev/svgjs" width="170" height="170"><svg width="170" height="170" viewBox="0 0 170 170" fill="none" xmlns="http://www.w3.org/2000/svg"><style>
@media prefers-color-scheme: dark {
  path {
    fill: #fff;
  }
}
@media prefers-color-scheme: light {
  path {
    fill: #000;
  }
}
@media (prefers-color-scheme: no-preference) {
  path {
    fill: #000;
  }
}
</style>
<path d="M40 81.6626C40 113.88 65.0707 140 95.9998 140V131.666C69.4879 131.666 47.9993 109.279 47.9993 81.6626H40Z" fill="white"></path>
<path d="M95.9998 48.3338C78.3248 48.3338 64.0002 63.2588 64.0002 81.6638C64.0002 100.075 78.3248 115 95.9998 115V123.334C73.9063 123.334 55.9998 104.676 55.9998 81.6625C55.9998 58.6525 73.9063 40 95.9998 40V48.3338Z" fill="white"></path>
<path d="M95.9998 81.6663V106.666C82.742 106.666 71.9995 95.4725 71.9995 81.6625C71.9995 67.8563 82.742 56.6663 95.9998 56.6663C109.259 56.6663 120 67.8563 120 81.6625L95.9998 81.6663Z" fill="white"></path>
</svg><style>@media (prefers-color-scheme: light) { :root { filter: none; } }
@media (prefers-color-scheme: dark) { :root { filter: none; } }
</style></svg>